<svg width="1032" height="205" viewBox="0 0 1032 205" fill="none" xmlns="http://www.w3.org/2000/svg">
<path d="M166.844 205H124.656L42.5312 70.2812V205H0.34375V0.25H42.5312L124.797 135.25V0.25H166.844V205ZM337 116.266H256V171.109H351.062V205H213.812V0.25H350.781V34.4219H256V83.2188H337V116.266ZM542.875 34.4219H480.156V205H437.969V34.4219H376.094V0.25H542.875V34.4219ZM700.375 121.328H619.375V205H577.188V0.25H710.5V34.4219H619.375V87.2969H700.375V121.328ZM787.281 171.109H876.859V205H745.094V0.25H787.281V171.109ZM942.531 92.5L985.141 0.25H1031.27L964.047 130.75V205H921.156V130.75L853.938 0.25H900.203L942.531 92.5Z" fill="#E30914"/>
</svg>
